<svg width="32" height="36" viewBox="0 0 32 36" fill="none" xmlns="http://www.w3.org/2000/svg">
    <mask id="mask0_533_6" style="mask-type:luminance" maskUnits="userSpaceOnUse" x="0" y="0" width="32" height="36">
        <path d="M0.330078 0.778809H31.6731V35.7439H0.330078V0.778809Z" fill="white" />
    </mask>
    <g mask="url(#mask0_533_6)">
        <path fill-rule="evenodd" clip-rule="evenodd"
            d="M28.0371 19.9586C26.6184 32.3793 18.8989 37.2194 5.48369 35.0492C5.40079 33.1025 5.40079 31.6627 5.48369 30.717L2.66029 29.9524C2.59769 28.1714 2.59769 26.3985 2.66029 24.6045C3.39069 24.806 2.66028 24.6045 0.511185 24.0341L0.323486 17.0101C2.08339 16.4186 3.85628 15.9319 5.67138 15.5216C11.5547 23.3386 21.9653 23.2062 25.9782 14.0826C26.0131 14.0266 26.0619 13.9778 26.0968 13.9291C25.0186 15.2161 23.3774 15.9392 20.5954 15.5354L16.6523 19.6458L12.7231 15.5354C5.00429 16.6485 6.03289 9.04031 3.49469 5.01351C6.11659 5.40351 8.35589 7.16261 9.33659 9.63181C8.94739 8.86641 8.23809 8.33101 7.41009 8.15711C6.74959 9.99981 7.43128 12.0514 9.05138 13.1296C10.8113 14.3118 13.8914 14.159 14.7056 11.9263C16.7636 6.17541 2.66759 6.96841 1.65189 0.778809C8.66219 6.87091 24.6636 6.87091 31.6738 0.778809C30.6582 6.96841 16.5621 6.17541 18.6413 11.9263C19.4343 14.159 22.5356 14.3118 24.2744 13.1296C25.8945 12.0514 26.5762 9.99981 25.9368 8.15711C25.1088 8.32451 24.3995 8.86641 24.0103 9.63181C24.9772 7.16261 27.2091 5.39621 29.8311 5.01351C28.9341 6.43301 28.5099 8.31711 27.9396 10.125C27.2229 12.2951 28.4189 16.7663 28.0371 19.9586ZM16.6523 17.1352L18.6974 15.1251L16.6523 13.0321L14.6219 15.1251L16.6523 17.1352ZM9.05869 10.4524C9.07899 11.5233 9.90688 12.3991 10.9502 12.4828C12.0211 12.5665 12.9595 11.8361 13.1618 10.7928C13.3495 9.74311 12.7166 8.72751 11.7083 8.44231C11.7083 9.08901 11.4019 9.71461 10.8803 10.1046C10.3587 10.4873 9.68429 10.619 9.05869 10.4524ZM24.2468 10.4524C24.2256 11.5233 23.4188 12.3991 22.3553 12.4828C21.3047 12.5665 20.3451 11.8361 20.1509 10.7928C19.9486 9.74311 20.5954 8.72751 21.6037 8.44231C21.6037 9.08901 21.91 9.71461 22.4316 10.1046C22.9459 10.4873 23.6211 10.619 24.2468 10.4524ZM9.29509 20.2511C6.90959 19.7783 4.62809 18.8114 2.61149 17.4277C3.48819 17.1701 4.37139 16.9402 5.24729 16.7322C6.40179 18.1297 7.76519 19.3192 9.29509 20.2511ZM1.94439 22.921L1.86079 19.9586C5.73389 22.4132 10.3936 23.4914 15.0046 22.9836C15.345 22.9283 15.7001 22.9007 16.0405 22.8308C16.3809 22.7756 16.736 22.713 17.0764 22.6431C13.252 24.3193 8.90509 24.7573 4.65659 23.6929L4.67689 23.6376L3.27209 23.2688C2.82759 23.1575 2.38239 23.0396 1.94439 22.921ZM3.96758 26.4261C11.4645 28.3176 19.2604 26.0857 24.6294 20.8906C23.4749 23.0396 21.8336 24.9523 19.8235 26.4611C15.8317 29.4584 10.6577 30.5366 5.79649 29.4023L3.96758 28.9295C3.96108 28.0812 3.96108 27.2541 3.96758 26.4261ZM25.7068 24.0065C24.8797 26.83 23.4952 29.4023 21.2218 31.2662C17.23 34.5487 11.5547 34.7161 6.61709 34.0271C6.59679 33.4153 6.58299 32.7758 6.59679 32.1494C11.7708 32.9635 17.1187 31.6627 21.3534 28.4988C23.0434 27.2191 24.5246 25.6957 25.7068 24.0065Z"
            fill="#9747FF" />
    </g>
</svg>