<svg width="78" height="66" viewBox="0 0 78 66" fill="none" xmlns="http://www.w3.org/2000/svg">
<g id="2" clip-path="url(#clip0_574_1206)">
<g id="Clip path group">
<mask id="mask0_574_1206" style="mask-type:luminance" maskUnits="userSpaceOnUse" x="23" y="16" width="32" height="36">
<g id="dedb16ad7a">
<path id="Vector" d="M23.3301 16.7789H54.6731V51.744H23.3301V16.7789Z" fill="white"/>
</g>
</mask>
<g mask="url(#mask0_574_1206)">
<g id="Group">
<path id="Vector_2" fill-rule="evenodd" clip-rule="evenodd" d="M51.0372 35.9587C49.6185 48.3794 41.899 53.2195 28.4838 51.0493C28.4009 49.1026 28.4009 47.6628 28.4838 46.7171L25.6604 45.9525C25.5978 44.1715 25.5978 42.3986 25.6604 40.6046C26.3908 40.8061 25.6604 40.6046 23.5113 40.0342L23.3236 33.0102C25.0835 32.4187 26.8564 31.932 28.6715 31.5217C34.5548 39.3387 44.9654 39.2063 48.9783 30.0827C49.0132 30.0267 49.062 29.9779 49.0969 29.9292C48.0187 31.2162 46.3775 31.9393 43.5955 31.5355L39.6524 35.6459L35.7232 31.5355C28.0044 32.6486 29.033 25.0404 26.4948 21.0136C29.1167 21.4036 31.356 23.1627 32.3367 25.6319C31.9475 24.8665 31.2382 24.3311 30.4102 24.1572C29.7497 25.9999 30.4314 28.0515 32.0515 29.1297C33.8114 30.3119 36.8915 30.1591 37.7057 27.9264C39.7637 22.1755 25.6677 22.9685 24.652 16.7789C31.6623 22.871 47.6637 22.871 54.6739 16.7789C53.6583 22.9685 39.5622 22.1755 41.6414 27.9264C42.4344 30.1591 45.5357 30.3119 47.2745 29.1297C48.8946 28.0515 49.5763 25.9999 48.9369 24.1572C48.1089 24.3246 47.3996 24.8665 47.0104 25.6319C47.9773 23.1627 50.2092 21.3963 52.8312 21.0136C51.9342 22.4331 51.51 24.3172 50.9397 26.1251C50.223 28.2952 51.419 32.7664 51.0372 35.9587ZM39.6524 33.1353L41.6975 31.1252L39.6524 29.0322L37.622 31.1252L39.6524 33.1353ZM32.0588 26.4525C32.0791 27.5234 32.907 28.3992 33.9503 28.4829C35.0212 28.5666 35.9596 27.8362 36.1619 26.7929C36.3496 25.7432 35.7167 24.7276 34.7084 24.4424C34.7084 25.0891 34.402 25.7147 33.8804 26.1047C33.3588 26.4874 32.6844 26.6191 32.0588 26.4525ZM47.2469 26.4525C47.2257 27.5234 46.4189 28.3992 45.3554 28.4829C44.3048 28.5666 43.3452 27.8362 43.151 26.7929C42.9487 25.7432 43.5955 24.7276 44.6038 24.4424C44.6038 25.0891 44.9101 25.7147 45.4317 26.1047C45.946 26.4874 46.6212 26.6191 47.2469 26.4525ZM32.2952 36.2512C29.9097 35.7784 27.6282 34.8115 25.6116 33.4278C26.4883 33.1702 27.3715 32.9403 28.2474 32.7323C29.4019 34.1298 30.7653 35.3193 32.2952 36.2512ZM24.9445 38.9211L24.8609 35.9587C28.734 38.4133 33.3937 39.4915 38.0047 38.9837C38.3451 38.9284 38.7002 38.9008 39.0406 38.8309C39.381 38.7757 39.7361 38.7131 40.0765 38.6432C36.2521 40.3194 31.9052 40.7574 27.6567 39.693L27.677 39.6377L26.2722 39.2689C25.8277 39.1576 25.3825 39.0397 24.9445 38.9211ZM26.9677 42.4262C34.4646 44.3177 42.2605 42.0858 47.6295 36.8907C46.475 39.0397 44.8337 40.9524 42.8236 42.4612C38.8318 45.4585 33.6578 46.5367 28.7966 45.4024L26.9677 44.9296C26.9612 44.0813 26.9612 43.2542 26.9677 42.4262ZM48.7069 40.0066C47.8798 42.8301 46.4953 45.4024 44.2219 47.2663C40.2301 50.5488 34.5548 50.7162 29.6172 50.0272C29.5969 49.4154 29.5831 48.7759 29.5969 48.1495C34.7709 48.9636 40.1188 47.6628 44.3535 44.4989C46.0435 43.2192 47.5247 41.6958 48.7069 40.0066Z" fill="#9747FF"/>
</g>
</g>
</g>
</g>
<defs>
<clipPath id="clip0_574_1206">
<rect width="78" height="78" fill="white" transform="translate(0 -4)"/>
</clipPath>
</defs>
</svg>
