<svg width="13" height="12" viewBox="0 0 13 12" fill="none" xmlns="http://www.w3.org/2000/svg">
<circle cx="6.75369" cy="6" r="6" fill="#C4C4C4"/>
<mask id="mask0_1218_506" style="mask-type:alpha" maskUnits="userSpaceOnUse" x="2" y="2" width="9" height="8">
<rect x="2.75369" y="2" width="8" height="8" fill="#D9D9D9"/>
</mask>
<g mask="url(#mask0_1218_506)">
<path d="M4.55372 8.79998C4.38872 8.79998 4.24747 8.74123 4.12997 8.62372C4.01247 8.50623 3.95372 8.36498 3.95372 8.19998V3.79998C3.95372 3.63498 4.01247 3.49373 4.12997 3.37623C4.24747 3.25873 4.38872 3.19998 4.55372 3.19998H5.97872C6.02316 3.02775 6.11622 2.8847 6.25789 2.77081C6.39955 2.65692 6.56483 2.59998 6.75372 2.59998C6.94261 2.59998 7.10789 2.65692 7.24955 2.77081C7.39122 2.8847 7.48428 3.02775 7.52872 3.19998H8.95372C9.11872 3.19998 9.25997 3.25873 9.37747 3.37623C9.49497 3.49373 9.55372 3.63498 9.55372 3.79998V8.19998C9.55372 8.36498 9.49497 8.50623 9.37747 8.62372C9.25997 8.74123 9.11872 8.79998 8.95372 8.79998H4.55372ZM4.55372 8.19998H8.95372V3.79998H4.55372V8.19998ZM5.45372 7.59998H7.25372C7.33872 7.59998 7.40997 7.57139 7.46747 7.51423C7.52497 7.45707 7.55372 7.38623 7.55372 7.30173C7.55372 7.21723 7.52497 7.14581 7.46747 7.08748C7.40997 7.02914 7.33872 6.99998 7.25372 6.99998H5.45372C5.36872 6.99998 5.29747 7.02856 5.23997 7.08572C5.18247 7.14288 5.15372 7.21372 5.15372 7.29822C5.15372 7.38272 5.18247 7.45414 5.23997 7.51248C5.29747 7.57081 5.36872 7.59998 5.45372 7.59998ZM5.45372 6.29998H8.05372C8.13872 6.29998 8.20997 6.27139 8.26747 6.21423C8.32497 6.15707 8.35372 6.08623 8.35372 6.00173C8.35372 5.91723 8.32497 5.84581 8.26747 5.78748C8.20997 5.72914 8.13872 5.69998 8.05372 5.69998H5.45372C5.36872 5.69998 5.29747 5.72856 5.23997 5.78572C5.18247 5.84288 5.15372 5.91372 5.15372 5.99822C5.15372 6.08272 5.18247 6.15414 5.23997 6.21248C5.29747 6.27081 5.36872 6.29998 5.45372 6.29998ZM5.45372 4.99998H8.05372C8.13872 4.99998 8.20997 4.9714 8.26747 4.91423C8.32497 4.85707 8.35372 4.78623 8.35372 4.70173C8.35372 4.61723 8.32497 4.54581 8.26747 4.48748C8.20997 4.42914 8.13872 4.39998 8.05372 4.39998H5.45372C5.36872 4.39998 5.29747 4.42856 5.23997 4.48572C5.18247 4.54288 5.15372 4.61372 5.15372 4.69822C5.15372 4.78272 5.18247 4.85414 5.23997 4.91248C5.29747 4.97081 5.36872 4.99998 5.45372 4.99998ZM6.75372 3.59998C6.8115 3.59998 6.85928 3.58109 6.89705 3.54331C6.93483 3.50553 6.95372 3.45775 6.95372 3.39998C6.95372 3.3422 6.93483 3.29442 6.89705 3.25664C6.85928 3.21886 6.8115 3.19998 6.75372 3.19998C6.69594 3.19998 6.64816 3.21886 6.61039 3.25664C6.57261 3.29442 6.55372 3.3422 6.55372 3.39998C6.55372 3.45775 6.57261 3.50553 6.61039 3.54331C6.64816 3.58109 6.69594 3.59998 6.75372 3.59998Z" fill="#1C1B1F"/>
</g>
</svg>
