<svg width="18" height="18" viewBox="0 0 18 18" fill="none" xmlns="http://www.w3.org/2000/svg">
<mask id="mask0_1218_534" style="mask-type:alpha" maskUnits="userSpaceOnUse" x="0" y="0" width="18" height="18">
<rect width="18" height="18" fill="#D9D9D9"/>
</mask>
<g mask="url(#mask0_1218_534)">
<path d="M4.05001 15.2999C3.67876 15.2999 3.36095 15.1678 3.09657 14.9034C2.8322 14.639 2.70001 14.3212 2.70001 13.9499V4.04994C2.70001 3.67869 2.8322 3.36088 3.09657 3.09651C3.36095 2.83213 3.67876 2.69994 4.05001 2.69994H7.25626C7.35626 2.31245 7.56564 1.99057 7.88439 1.73432C8.20314 1.47807 8.57501 1.34995 9.00001 1.34995C9.42501 1.34995 9.79689 1.47807 10.1156 1.73432C10.4344 1.99057 10.6438 2.31245 10.7438 2.69994H13.95C14.3213 2.69994 14.6391 2.83213 14.9034 3.09651C15.1678 3.36088 15.3 3.67869 15.3 4.04994V13.9499C15.3 14.3212 15.1678 14.639 14.9034 14.9034C14.6391 15.1678 14.3213 15.2999 13.95 15.2999H4.05001ZM4.05001 13.9499H13.95V4.04994H4.05001V13.9499ZM6.07501 12.5999H10.125C10.3163 12.5999 10.4766 12.5356 10.606 12.407C10.7353 12.2784 10.8 12.119 10.8 11.9289C10.8 11.7388 10.7353 11.5781 10.606 11.4468C10.4766 11.3156 10.3163 11.2499 10.125 11.2499H6.07501C5.88376 11.2499 5.72345 11.3143 5.59407 11.4429C5.4647 11.5715 5.40001 11.7309 5.40001 11.921C5.40001 12.1111 5.4647 12.2718 5.59407 12.4031C5.72345 12.5343 5.88376 12.5999 6.07501 12.5999ZM6.07501 9.67494H11.925C12.1163 9.67494 12.2766 9.61064 12.406 9.48203C12.5353 9.3534 12.6 9.19403 12.6 9.0039C12.6 8.81376 12.5353 8.65307 12.406 8.52182C12.2766 8.39057 12.1163 8.32494 11.925 8.32494H6.07501C5.88376 8.32494 5.72345 8.38925 5.59407 8.51786C5.4647 8.64649 5.40001 8.80586 5.40001 8.99599C5.40001 9.18613 5.4647 9.34682 5.59407 9.47807C5.72345 9.60932 5.88376 9.67494 6.07501 9.67494ZM6.07501 6.74994H11.925C12.1163 6.74994 12.2766 6.68564 12.406 6.55703C12.5353 6.4284 12.6 6.26903 12.6 6.0789C12.6 5.88876 12.5353 5.72807 12.406 5.59682C12.2766 5.46557 12.1163 5.39994 11.925 5.39994H6.07501C5.88376 5.39994 5.72345 5.46425 5.59407 5.59286C5.4647 5.72149 5.40001 5.88086 5.40001 6.07099C5.40001 6.26113 5.4647 6.42182 5.59407 6.55307C5.72345 6.68432 5.88376 6.74994 6.07501 6.74994ZM9.00001 3.59995C9.13001 3.59995 9.23751 3.55745 9.32251 3.47245C9.40751 3.38745 9.45001 3.27995 9.45001 3.14995C9.45001 3.01995 9.40751 2.91244 9.32251 2.82744C9.23751 2.74244 9.13001 2.69994 9.00001 2.69994C8.87001 2.69994 8.76251 2.74244 8.67751 2.82744C8.59251 2.91244 8.55001 3.01995 8.55001 3.14995C8.55001 3.27995 8.59251 3.38745 8.67751 3.47245C8.76251 3.55745 8.87001 3.59995 9.00001 3.59995Z" fill="#1C1B1F"/>
</g>
</svg>
