<svg width="75" height="75" viewBox="0 0 75 75" fill="none" xmlns="http://www.w3.org/2000/svg">
<mask id="mask0_203_1648" style="mask-type:alpha" maskUnits="userSpaceOnUse" x="0" y="0" width="75" height="75">
<rect width="75" height="75" fill="#D9D9D9"/>
</mask>
<g mask="url(#mask0_203_1648)">
<path d="M20.3125 62.5C15.5729 62.5 11.5234 60.8594 8.16406 57.5781C4.80469 54.2969 3.125 50.2865 3.125 45.5469C3.125 41.4844 4.34896 37.8646 6.79688 34.6875C9.24479 31.5104 12.4479 29.4792 16.4062 28.5938C17.7083 23.8021 20.3125 19.9219 24.2188 16.9531C28.125 13.9844 32.5521 12.5 37.5 12.5C43.5938 12.5 48.763 14.6224 53.0078 18.8672C57.2526 23.112 59.375 28.2812 59.375 34.375C62.9688 34.7917 65.9505 36.3411 68.3203 39.0234C70.6901 41.7057 71.875 44.8438 71.875 48.4375C71.875 52.3438 70.5078 55.6641 67.7734 58.3984C65.0391 61.1328 61.7188 62.5 57.8125 62.5H40.625V40.1563L43.4375 42.8906C44.0104 43.4635 44.7266 43.75 45.5859 43.75C46.4453 43.75 47.1875 43.4375 47.8125 42.8125C48.3854 42.2396 48.6719 41.5104 48.6719 40.625C48.6719 39.7396 48.3854 39.0104 47.8125 38.4375L39.6875 30.3125C39.0625 29.6875 38.3333 29.375 37.5 29.375C36.6667 29.375 35.9375 29.6875 35.3125 30.3125L27.1875 38.4375C26.6146 39.0104 26.3151 39.7266 26.2891 40.5859C26.263 41.4453 26.5625 42.1875 27.1875 42.8125C27.7604 43.3854 28.4766 43.6849 29.3359 43.7109C30.1953 43.737 30.9375 43.4635 31.5625 42.8906L34.375 40.1563V62.5H20.3125Z" fill="#ACBCCA"/>
</g>
</svg>
