 <svg
          width="38"
          height="38"
          viewBox="0 0 30 30"
          fill="none"
          xmlns="http://www.w3.org/2000/svg"
        >
          <g clip-path="url(#clip0_423_783)">
            <path
              d="M15 30C23.2843 30 30 23.2843 30 15C30 6.71573 23.2843 0 15 0C6.71573 0 0 6.71573 0 15C0 23.2843 6.71573 30 15 30Z"
              fill="#386895"
            />
            <path
              d="M29.2421 19.7178L14.338 4.81366L9.43377 7.67063L9.22336 7.46022L6.4882 9.38667L6.41561 9.42897L6.42076 9.43413L5.36572 10.1773L15.5824 20.394L16.4815 19.495L21.0311 24.0445L6.66668 25.2273L10.8605 29.4211C12.1754 29.7979 13.564 30 15 30C21.636 30 27.2647 25.6905 29.2421 19.7178Z"
              fill="#273B7A"
            />
            <path
              d="M9.04043 24.9874H20.9596V20.1757C20.9596 19.0535 20.05 18.1439 18.9278 18.1439H11.0721C9.94998 18.1439 9.04037 19.0535 9.04037 20.1757L9.04043 24.9874Z"
              fill="#FFC61B"
            />
            <path
              d="M20.9596 20.1757C20.9596 19.0536 20.05 18.1439 18.9278 18.1439H14.9663V24.9874H20.9596V20.1757Z"
              fill="#EAA22F"
            />
            <path
              d="M15 19.1415C17.0083 19.1415 18.6364 17.5134 18.6364 15.5051C18.6364 13.4968 17.0083 11.8687 15 11.8687C12.9917 11.8687 11.3636 13.4968 11.3636 15.5051C11.3636 17.5134 12.9917 19.1415 15 19.1415Z"
              fill="#FFEDB5"
            />
            <path
              d="M15 11.8687C14.9887 11.8687 14.9776 11.8694 14.9664 11.8695V19.1405C14.9776 19.1407 14.9887 19.1414 15 19.1414C17.0083 19.1414 18.6364 17.5133 18.6364 15.505C18.6364 13.4967 17.0083 11.8687 15 11.8687Z"
              fill="#FEE187"
            />
            <path
              d="M4.89896 5.47058V9.34937C4.89896 9.88491 5.33308 10.319 5.86863 10.319H10.7171L11.8589 11.4609C12.1532 11.7552 12.6565 11.5467 12.6565 11.1304V10.3189H13.6262C14.1617 10.3189 14.5959 9.8848 14.5959 9.34925V5.47046C14.5959 4.93491 14.1618 4.50079 13.6262 4.50079H5.86869C5.33314 4.50091 4.89896 4.93503 4.89896 5.47058Z"
              fill="#E09112"
            />
            <path
              d="M23.3333 23.5606H6.66668V25.2272H23.3333V23.5606Z"
              fill="#FF5419"
            />
            <path
              d="M23.3333 23.5606H14.9667V25.2272H23.3333V23.5606Z"
              fill="#C92F00"
            />
          </g>
          <defs>
            <clipPath id="clip0_423_783">
              <rect width="30" height="30" fill="white" />
            </clipPath>
          </defs>
        </svg>