<svg
    width="38"
    height="38"
    viewBox="0 0 30 30"
    fill="none"
    xmlns="http://www.w3.org/2000/svg"
  >
    <g clip-path="url(#clip0_423_777)">
      <path
        d="M15 30C23.2843 30 30 23.2843 30 15C30 6.71573 23.2843 0 15 0C6.71573 0 0 6.71573 0 15C0 23.2843 6.71573 30 15 30Z"
        fill="#E0995E"
      />
      <g opacity="0.2">
        <path
          d="M23.2031 10.4531H20.8594C20.8594 10.4531 20.2031 10.4531 19.6875 9.1875C19.4531 8.53125 19.1719 7.92188 18.5156 7.92188H13.8281C13.1719 7.92188 12.8906 8.53125 12.6562 9.1875C12.1875 10.4531 11.4844 10.4531 11.4844 10.4531H10.3125C10.3125 9.75 9.79688 9.1875 9.14062 9.1875H7.96875C7.3125 9.1875 6.79688 9.75 6.79688 10.4531C6.14062 10.4531 5.625 11.0156 5.625 11.7188V21.7031C5.625 22.4062 6.14062 22.9687 6.79688 22.9687H23.2031C23.8594 22.9687 24.375 22.4062 24.375 21.7031V11.7188C24.375 11.0156 23.8594 10.4531 23.2031 10.4531Z"
          fill="#231F20"
        />
      </g>
      <path
        d="M23.2031 9.375H20.8594C20.8594 9.375 20.2031 9.51563 19.6875 8.29688C19.4531 7.64063 19.1719 7.03125 18.5156 7.03125H13.8281C13.1719 7.03125 12.8906 7.64063 12.6562 8.29688C12.1875 9.5625 11.4844 9.375 11.4844 9.375H10.3125C10.3125 8.67188 9.79688 8.4375 9.14062 8.4375H7.96875C7.3125 8.4375 6.79688 8.67188 6.79688 9.375C6.14062 9.375 5.625 10.0781 5.625 10.7812V20.7656C5.625 21.4688 6.14062 22.0312 6.79688 22.0312H23.2031C23.8594 22.0312 24.375 21.4688 24.375 20.7656V10.7812C24.375 10.0781 23.8594 9.375 23.2031 9.375Z"
        fill="#4F5D73"
      />
      <path
        d="M15.9375 19.6875C18.2675 19.6875 20.1562 17.7987 20.1562 15.4688C20.1562 13.1388 18.2675 11.25 15.9375 11.25C13.6075 11.25 11.7188 13.1388 11.7188 15.4688C11.7188 17.7987 13.6075 19.6875 15.9375 19.6875Z"
        fill="#77B3D4"
      />
      <g opacity="0.2">
        <path
          d="M15.9375 21.5625C13.0781 21.5625 10.7812 19.2656 10.7812 16.4062C10.7812 13.5469 13.0781 11.25 15.9375 11.25C18.7969 11.25 21.0938 13.5469 21.0938 16.4062C21.0938 19.2656 18.7969 21.5625 15.9375 21.5625ZM15.9375 13.125C14.1094 13.125 12.6562 14.5781 12.6562 16.4062C12.6562 18.2344 14.1094 19.6875 15.9375 19.6875C17.7656 19.6875 19.2188 18.2344 19.2188 16.4062C19.2188 14.5781 17.7656 13.125 15.9375 13.125Z"
          fill="#231F20"
        />
      </g>
      <path
        d="M15.9375 20.3906C13.2188 20.3906 11.0156 18.1875 11.0156 15.4688C11.0156 12.75 13.2188 10.5469 15.9375 10.5469C18.6562 10.5469 20.8594 12.75 20.8594 15.4688C20.8594 18.1875 18.6562 20.3906 15.9375 20.3906ZM15.9375 11.9531C14.0156 11.9531 12.4219 13.5469 12.4219 15.4688C12.4219 17.3906 14.0156 18.9844 15.9375 18.9844C17.8594 18.9844 19.4531 17.3906 19.4531 15.4688C19.4531 13.5469 17.8594 11.9531 15.9375 11.9531Z"
        fill="white"
      />
    </g>
    <defs>
      <clipPath id="clip0_423_777">
        <rect width="30" height="30" fill="white" />
      </clipPath>
    </defs>
  </svg>