<svg width="25" height="25" viewBox="0 0 25 25" fill="none" xmlns="http://www.w3.org/2000/svg">
<g id="clock_loader_20">
<mask id="mask0_1052_294" style="mask-type:alpha" maskUnits="userSpaceOnUse" x="0" y="0" width="25" height="25">
<rect id="Bounding box" width="25" height="25" fill="#D9D9D9"/>
</mask>
<g mask="url(#mask0_1052_294)">
<path id="clock_loader_20_2" d="M12.5 22.9167C11.059 22.9167 9.70486 22.6432 8.4375 22.0964C7.17014 21.5495 6.06771 20.8073 5.13021 19.8698C4.19271 18.9323 3.45052 17.8299 2.90365 16.5625C2.35677 15.2951 2.08334 13.941 2.08334 12.5C2.08334 11.059 2.35677 9.70486 2.90365 8.4375C3.45052 7.17014 4.19271 6.06771 5.13021 5.13021C6.06771 4.19271 7.17014 3.45052 8.4375 2.90365C9.70486 2.35677 11.059 2.08334 12.5 2.08334C13.941 2.08334 15.2951 2.35677 16.5625 2.90365C17.8299 3.45052 18.9323 4.19271 19.8698 5.13021C20.8073 6.06771 21.5495 7.17014 22.0964 8.4375C22.6432 9.70486 22.9167 11.059 22.9167 12.5C22.9167 13.941 22.6432 15.2951 22.0964 16.5625C21.5495 17.8299 20.8073 18.9323 19.8698 19.8698C18.9323 20.8073 17.8299 21.5495 16.5625 22.0964C15.2951 22.6432 13.941 22.9167 12.5 22.9167ZM12.5 20.8333C14.8264 20.8333 16.7969 20.026 18.4115 18.4115C20.026 16.7969 20.8333 14.8264 20.8333 12.5H12.5V4.16667C10.1736 4.16667 8.20313 4.97396 6.58854 6.58854C4.97396 8.20313 4.16667 10.1736 4.16667 12.5C4.16667 14.8264 4.97396 16.7969 6.58854 18.4115C8.20313 20.026 10.1736 20.8333 12.5 20.8333Z" fill="#FAAF3A"/>
</g>
</g>
</svg>
