<svg width="40" height="40" viewBox="0 0 40 40" fill="none" xmlns="http://www.w3.org/2000/svg">
<g id="Credits">
<rect id="Rectangle 32" width="40" height="40" rx="10" fill="#084FC7"/>
<g id="Group 63">
<g id="school">
<mask id="mask0_540_5344" style="mask-type:alpha" maskUnits="userSpaceOnUse" x="8" y="9" width="22" height="22">
<rect id="Bounding box" x="8" y="9" width="22" height="22" fill="#D9D9D9"/>
</mask>
<g mask="url(#mask0_540_5344)">
<path id="school_2" d="M27.7083 24.5146V18.0521L18.9771 22.75L8.91666 17.25L18.9771 11.75L29.0833 17.25V24.5146H27.7083ZM18.9771 28.25L12.3312 24.6063V19.7938L18.9771 23.4375L25.6229 19.7938V24.6063L18.9771 28.25Z" fill="#E6F0ED"/>
</g>
</g>
<g id="monetization_on">
<mask id="mask1_540_5344" style="mask-type:alpha" maskUnits="userSpaceOnUse" x="16" y="14" width="6" height="6">
<rect id="Bounding box_2" x="16.36" y="14.28" width="5.28" height="5.28" fill="#D9D9D9"/>
</mask>
<g mask="url(#mask1_540_5344)">
<path id="monetization_on_2" d="M18.758 18.449H19.2365V18.1795C19.4382 18.1319 19.594 18.0439 19.704 17.9155C19.814 17.7872 19.869 17.6352 19.869 17.4595C19.869 17.2868 19.8204 17.1364 19.7232 17.008C19.6261 16.8797 19.4693 16.777 19.253 16.7C19.033 16.6194 18.8827 16.5526 18.802 16.4997C18.7213 16.4468 18.681 16.3779 18.681 16.293C18.681 16.2307 18.7085 16.1803 18.7635 16.1418C18.8185 16.1033 18.8918 16.084 18.9835 16.084C19.0898 16.084 19.1787 16.1115 19.2502 16.1665C19.3217 16.2215 19.3667 16.293 19.385 16.381L19.8195 16.1995C19.7828 16.0639 19.7132 15.9456 19.6105 15.8448C19.5078 15.7439 19.3832 15.6823 19.2365 15.6599V15.391H18.7635V15.666C18.5985 15.7064 18.4647 15.7834 18.362 15.897C18.2593 16.0107 18.208 16.1445 18.208 16.2985C18.208 16.4745 18.2657 16.6258 18.3812 16.7523C18.4967 16.8788 18.6718 16.9824 18.9065 17.063C19.0715 17.1217 19.1952 17.182 19.2777 17.2439C19.3602 17.3059 19.4015 17.3776 19.4015 17.459C19.4015 17.5392 19.3694 17.6079 19.3052 17.6649C19.2411 17.722 19.1532 17.7505 19.0416 17.7505C18.9227 17.7505 18.8173 17.7093 18.7253 17.6268C18.6334 17.5443 18.5765 17.4334 18.5545 17.294L18.1035 17.47C18.1402 17.646 18.2172 17.7964 18.3345 17.921C18.4518 18.0457 18.593 18.1291 18.758 18.1714V18.449ZM19 19.208C18.686 19.208 18.3899 19.1484 18.1119 19.0292C17.8338 18.9099 17.5906 18.7461 17.3822 18.5378C17.1739 18.3294 17.0101 18.0862 16.8909 17.8082C16.7716 17.5301 16.712 17.234 16.712 16.92C16.712 16.6014 16.7717 16.3036 16.8912 16.0265C17.0106 15.7494 17.1747 15.5064 17.3834 15.2974C17.5921 15.0885 17.8354 14.9254 18.1131 14.808C18.3908 14.6907 18.6864 14.632 19 14.632C19.3186 14.632 19.6164 14.6907 19.8934 14.808C20.1705 14.9254 20.4135 15.0885 20.6225 15.2975C20.8315 15.5065 20.9947 15.7496 21.112 16.0267C21.2293 16.3039 21.288 16.6018 21.288 16.9205C21.288 17.2355 21.2293 17.5314 21.112 17.8083C20.9947 18.0851 20.8315 18.3279 20.6226 18.5366C20.4136 18.7453 20.1706 18.9094 19.8935 19.0288C19.6165 19.1483 19.3186 19.208 19 19.208Z" fill="#084FC7"/>
</g>
</g>
</g>
</g>
</svg>
