<svg width="25" height="25" viewBox="0 0 25 25" fill="none" xmlns="http://www.w3.org/2000/svg">
<g id="description">
<mask id="mask0_1052_285" style="mask-type:alpha" maskUnits="userSpaceOnUse" x="0" y="0" width="25" height="25">
<rect id="Bounding box" width="25" height="25" fill="#D9D9D9"/>
</mask>
<g mask="url(#mask0_1052_285)">
<path id="description_2" d="M9.37502 18.75H15.625C15.9202 18.75 16.1676 18.6502 16.3672 18.4505C16.5669 18.2509 16.6667 18.0035 16.6667 17.7083C16.6667 17.4132 16.5669 17.1658 16.3672 16.9662C16.1676 16.7665 15.9202 16.6667 15.625 16.6667H9.37502C9.07988 16.6667 8.83248 16.7665 8.63283 16.9662C8.43318 17.1658 8.33335 17.4132 8.33335 17.7083C8.33335 18.0035 8.43318 18.2509 8.63283 18.4505C8.83248 18.6502 9.07988 18.75 9.37502 18.75ZM9.37502 14.5833H15.625C15.9202 14.5833 16.1676 14.4835 16.3672 14.2839C16.5669 14.0842 16.6667 13.8368 16.6667 13.5417C16.6667 13.2465 16.5669 12.9991 16.3672 12.7995C16.1676 12.5998 15.9202 12.5 15.625 12.5H9.37502C9.07988 12.5 8.83248 12.5998 8.63283 12.7995C8.43318 12.9991 8.33335 13.2465 8.33335 13.5417C8.33335 13.8368 8.43318 14.0842 8.63283 14.2839C8.83248 14.4835 9.07988 14.5833 9.37502 14.5833ZM6.25002 22.9167C5.6771 22.9167 5.18665 22.7127 4.77867 22.3047C4.37068 21.8967 4.16669 21.4063 4.16669 20.8333V4.16667C4.16669 3.59375 4.37068 3.1033 4.77867 2.69532C5.18665 2.28733 5.6771 2.08334 6.25002 2.08334H13.724C14.0018 2.08334 14.2665 2.13542 14.5182 2.23959C14.77 2.34375 14.9913 2.49132 15.1823 2.68229L20.2344 7.73438C20.4254 7.92535 20.5729 8.1467 20.6771 8.39844C20.7813 8.65018 20.8334 8.91493 20.8334 9.19271V20.8333C20.8334 21.4063 20.6294 21.8967 20.2214 22.3047C19.8134 22.7127 19.3229 22.9167 18.75 22.9167H6.25002ZM13.5417 8.33334V4.16667H6.25002V20.8333H18.75V9.375H14.5834C14.2882 9.375 14.0408 9.27518 13.8412 9.07552C13.6415 8.87587 13.5417 8.62848 13.5417 8.33334Z" fill="#1C1B1F"/>
</g>
</g>
</svg>
