<svg width="40" height="40" viewBox="0 0 40 40" fill="none" xmlns="http://www.w3.org/2000/svg">
<rect width="40" height="40" rx="10" fill="#1C274C"/>
<mask id="mask0_540_5357" style="mask-type:alpha" maskUnits="userSpaceOnUse" x="11" y="11" width="19" height="19">
<rect x="11.1429" y="11.1429" width="18" height="18" fill="#D9D9D9"/>
</mask>
<g mask="url(#mask0_540_5357)">
<path d="M19.0929 21.0804L17.4804 19.4679C17.3429 19.3304 17.1679 19.2616 16.9554 19.2616C16.7429 19.2616 16.5679 19.3304 16.4304 19.4679C16.2929 19.6054 16.2241 19.7804 16.2241 19.9929C16.2241 20.2054 16.2929 20.3804 16.4304 20.5179L18.5679 22.6554C18.7179 22.8054 18.8929 22.8804 19.0929 22.8804C19.2929 22.8804 19.4679 22.8054 19.6179 22.6554L23.8554 18.4179C23.9929 18.2804 24.0616 18.1054 24.0616 17.8929C24.0616 17.6804 23.9929 17.5054 23.8554 17.3679C23.7179 17.2304 23.5429 17.1616 23.3304 17.1616C23.1179 17.1616 22.9429 17.2304 22.8054 17.3679L19.0929 21.0804ZM14.8929 26.8929C14.4804 26.8929 14.1272 26.746 13.8335 26.4522C13.5397 26.1585 13.3929 25.8054 13.3929 25.3929V14.8929C13.3929 14.4804 13.5397 14.1272 13.8335 13.8335C14.1272 13.5397 14.4804 13.3929 14.8929 13.3929H18.0429C18.2054 12.9429 18.4772 12.5804 18.8585 12.3054C19.2397 12.0304 19.6679 11.8929 20.1429 11.8929C20.6179 11.8929 21.046 12.0304 21.4272 12.3054C21.8085 12.5804 22.0804 12.9429 22.2429 13.3929H25.3929C25.8054 13.3929 26.1585 13.5397 26.4522 13.8335C26.746 14.1272 26.8929 14.4804 26.8929 14.8929V25.3929C26.8929 25.8054 26.746 26.1585 26.4522 26.4522C26.1585 26.746 25.8054 26.8929 25.3929 26.8929H14.8929ZM20.1429 14.3304C20.3054 14.3304 20.4397 14.2772 20.546 14.171C20.6522 14.0647 20.7054 13.9304 20.7054 13.7679C20.7054 13.6054 20.6522 13.471 20.546 13.3647C20.4397 13.2585 20.3054 13.2054 20.1429 13.2054C19.9804 13.2054 19.846 13.2585 19.7397 13.3647C19.6335 13.471 19.5804 13.6054 19.5804 13.7679C19.5804 13.9304 19.6335 14.0647 19.7397 14.171C19.846 14.2772 19.9804 14.3304 20.1429 14.3304Z" fill="#EDEEF1"/>
</g>
</svg>
