<svg
          width="38"
          height="38"
          viewBox="0 0 30 30"
          fill="none"
          xmlns="http://www.w3.org/2000/svg"
        >
          <g clip-path="url(#clip0_423_778)">
            <path
              d="M15 30C23.2843 30 30 23.2843 30 15C30 6.71573 23.2843 0 15 0C6.71573 0 0 6.71573 0 15C0 23.2843 6.71573 30 15 30Z"
              fill="#45B39C"
            />
            <path
              opacity="0.1"
              d="M29.9041 16.6794L21.8965 8.67189L21.8841 8.65625L21.859 8.63123C21.8153 8.59062 21.7622 8.56871 21.6997 8.56871H18.6622C18.534 8.56871 18.4278 8.67494 18.4278 8.80619V8.84058C18.4278 8.96873 18.534 9.07496 18.6622 9.07496H18.6684V9.89996L15.259 6.48746C15.2091 6.43748 15.1403 6.40619 15.0622 6.40619C14.9059 6.40619 14.784 6.53117 14.784 6.68433V10.1969H13.184L11.6559 8.67189L11.6341 8.65004L11.6331 8.65162C11.5891 8.60287 11.5294 8.56883 11.4591 8.56883H8.42156C8.29031 8.56883 8.18718 8.67506 8.18718 8.80631V8.8407C8.18718 8.96884 8.29031 9.07508 8.42156 9.07508H8.42466V10.2001C8.28404 10.2126 8.17154 10.3282 8.17154 10.472C8.17154 10.6157 8.28404 10.7313 8.42466 10.7407V17.2969C8.42466 17.7532 8.62781 18.1625 8.94656 18.4375L8.97158 18.4626L10.1872 19.6782H7.24037C6.78099 19.6782 6.40599 20.0532 6.40599 20.5126V23.5938L12.6228 29.8107C13.3975 29.9341 14.1909 30 15 30C22.7163 30 29.0688 24.1725 29.9041 16.6794Z"
              fill="black"
            />
            <path
              d="M23.5937 22.9688H6.40623V23.5934H23.5937V22.9688Z"
              fill="#F6C358"
            />
            <path
              d="M22.7585 19.6788H7.24155C6.7803 19.6788 6.40623 20.0528 6.40623 20.5141V22.9691H23.5937V20.5141C23.5938 20.0528 23.22 19.6788 22.7585 19.6788Z"
              fill="#FCD462"
            />
            <path
              d="M8.42596 9.07562V17.2984C8.42596 18.1312 9.10126 18.8062 9.93411 18.8062C10.767 18.8062 11.4423 18.1312 11.4423 17.2984V9.07562H8.42596Z"
              fill="#EBF0F3"
            />
            <path
              d="M8.73872 11.6682V17.2985C8.73872 17.9575 9.27497 18.4938 9.93404 18.4938C10.5931 18.4938 11.1296 17.9575 11.1296 17.2985V11.6682H8.73872Z"
              fill="#E56353"
            />
            <path
              d="M11.4594 8.56903H8.42186C8.29154 8.56903 8.1859 8.67468 8.1859 8.80499V8.83968C8.1859 8.96999 8.29154 9.07563 8.42186 9.07563H11.4594C11.5897 9.07563 11.6953 8.96999 11.6953 8.83968V8.80499C11.6953 8.67468 11.5897 8.56903 11.4594 8.56903Z"
              fill="#E1E6E9"
            />
            <path
              d="M9.13125 10.9794C9.21409 10.9794 9.28125 10.9122 9.28125 10.8294C9.28125 10.7465 9.21409 10.6794 9.13125 10.6794C9.0484 10.6794 8.98125 10.7465 8.98125 10.8294C8.98125 10.9122 9.0484 10.9794 9.13125 10.9794Z"
              fill="#E56353"
            />
            <path
              d="M10.2534 9.93411C10.3827 9.93411 10.4875 9.8293 10.4875 9.70002C10.4875 9.57074 10.3827 9.46594 10.2534 9.46594C10.1242 9.46594 10.0193 9.57074 10.0193 9.70002C10.0193 9.8293 10.1242 9.93411 10.2534 9.93411Z"
              fill="#E56353"
            />
            <path
              d="M9.44688 10.1603C9.57409 10.1603 9.67722 10.0572 9.67722 9.92998C9.67722 9.80277 9.57409 9.69965 9.44688 9.69965C9.31968 9.69965 9.21655 9.80277 9.21655 9.92998C9.21655 10.0572 9.31968 10.1603 9.44688 10.1603Z"
              fill="#E56353"
            />
            <path
              d="M9.49875 16.2803C9.62596 16.2803 9.72908 16.1772 9.72908 16.05C9.72908 15.9228 9.62596 15.8196 9.49875 15.8196C9.37154 15.8196 9.26842 15.9228 9.26842 16.05C9.26842 16.1772 9.37154 16.2803 9.49875 16.2803Z"
              fill="white"
            />
            <path
              d="M10.7669 11.3334C10.8648 11.3334 10.9441 11.2541 10.9441 11.1563C10.9441 11.0584 10.8648 10.9791 10.7669 10.9791C10.669 10.9791 10.5897 11.0584 10.5897 11.1563C10.5897 11.2541 10.669 11.3334 10.7669 11.3334Z"
              fill="#E56353"
            />
            <path
              d="M9.67594 13.3834C9.77379 13.3834 9.85312 13.3041 9.85312 13.2062C9.85312 13.1084 9.77379 13.0291 9.67594 13.0291C9.57808 13.0291 9.49875 13.1084 9.49875 13.2062C9.49875 13.3041 9.57808 13.3834 9.67594 13.3834Z"
              fill="white"
            />
            <path
              d="M10.31 17.5084C10.4078 17.5084 10.4872 17.4291 10.4872 17.3312C10.4872 17.2334 10.4078 17.1541 10.31 17.1541C10.2121 17.1541 10.1328 17.2334 10.1328 17.3312C10.1328 17.4291 10.2121 17.5084 10.31 17.5084Z"
              fill="white"
            />
            <path
              d="M10.4306 14.8478C10.5285 14.8478 10.6078 14.7685 10.6078 14.6706C10.6078 14.5727 10.5285 14.4934 10.4306 14.4934C10.3328 14.4934 10.2534 14.5727 10.2534 14.6706C10.2534 14.7685 10.3328 14.8478 10.4306 14.8478Z"
              fill="white"
            />
            <path
              d="M18.6675 9.07562V17.2984C18.6675 18.1312 19.3428 18.8062 20.1756 18.8062C21.0084 18.8062 21.6838 18.1312 21.6838 17.2984V9.07562H18.6675Z"
              fill="#EBF0F3"
            />
            <path
              d="M18.98 14.065V17.2981C18.98 17.9572 19.5162 18.4935 20.1753 18.4935C20.8344 18.4935 21.3709 17.9572 21.3709 17.2981V14.065H18.98Z"
              fill="#27A2DB"
            />
            <path
              d="M21.7006 8.56903H18.6631C18.5328 8.56903 18.4272 8.67468 18.4272 8.80499V8.83968C18.4272 8.96999 18.5328 9.07563 18.6631 9.07563H21.7006C21.8309 9.07563 21.9366 8.96999 21.9366 8.83968V8.80499C21.9366 8.67468 21.8309 8.56903 21.7006 8.56903Z"
              fill="#E1E6E9"
            />
            <path
              d="M19.5531 13.3684C19.6427 13.3684 19.7153 13.2958 19.7153 13.2063C19.7153 13.1167 19.6427 13.0441 19.5531 13.0441C19.4636 13.0441 19.391 13.1167 19.391 13.2063C19.391 13.2958 19.4636 13.3684 19.5531 13.3684Z"
              fill="#27A2DB"
            />
            <path
              d="M19.7625 11.4262C19.8391 11.4262 19.9013 11.3641 19.9013 11.2875C19.9013 11.2109 19.8391 11.1487 19.7625 11.1487C19.6859 11.1487 19.6237 11.2109 19.6237 11.2875C19.6237 11.3641 19.6859 11.4262 19.7625 11.4262Z"
              fill="#27A2DB"
            />
            <path
              d="M20.9625 10.1972C21.0473 10.1972 21.116 10.1285 21.116 10.0437C21.116 9.95896 21.0473 9.89026 20.9625 9.89026C20.8778 9.89026 20.8091 9.95896 20.8091 10.0437C20.8091 10.1285 20.8778 10.1972 20.9625 10.1972Z"
              fill="#27A2DB"
            />
            <path
              d="M20.7813 13.121C20.9589 13.121 21.1028 12.977 21.1028 12.7994C21.1028 12.6218 20.9589 12.4778 20.7813 12.4778C20.6037 12.4778 20.4597 12.6218 20.4597 12.7994C20.4597 12.977 20.6037 13.121 20.7813 13.121Z"
              fill="#27A2DB"
            />
            <path
              d="M19.7375 16.2804C19.8647 16.2804 19.9678 16.1772 19.9678 16.05C19.9678 15.9228 19.8647 15.8197 19.7375 15.8197C19.6103 15.8197 19.5071 15.9228 19.5071 16.05C19.5071 16.1772 19.6103 16.2804 19.7375 16.2804Z"
              fill="white"
            />
            <path
              d="M20.4063 17.5085C20.5041 17.5085 20.5835 17.4292 20.5835 17.3313C20.5835 17.2334 20.5041 17.1541 20.4063 17.1541C20.3084 17.1541 20.2291 17.2334 20.2291 17.3313C20.2291 17.4292 20.3084 17.5085 20.4063 17.5085Z"
              fill="white"
            />
            <path
              d="M20.6688 14.8478C20.7666 14.8478 20.846 14.7685 20.846 14.6707C20.846 14.5728 20.7666 14.4935 20.6688 14.4935C20.5709 14.4935 20.4916 14.5728 20.4916 14.6707C20.4916 14.7685 20.5709 14.8478 20.6688 14.8478Z"
              fill="white"
            />
            <path
              d="M21.6628 10.745H8.44688C8.29565 10.745 8.17284 10.6222 8.17284 10.4709C8.17284 10.3197 8.29565 10.1969 8.44688 10.1969H21.6628C21.814 10.1969 21.9369 10.3197 21.9369 10.4709C21.9366 10.6222 21.814 10.745 21.6628 10.745Z"
              fill="#3A556A"
            />
            <path
              d="M15.3397 19.6788H14.7828V6.68469C14.7828 6.53094 14.9075 6.40625 15.0612 6.40625C15.215 6.40625 15.3397 6.53094 15.3397 6.68469V19.6788Z"
              fill="#64798A"
            />
          </g>
          <defs>
            <clipPath id="clip0_423_778">
              <rect width="30" height="30" fill="white" />
            </clipPath>
          </defs>
        </svg>