<svg width="32" height="35" viewBox="0 0 32 35" fill="none" xmlns="http://www.w3.org/2000/svg">
<g id="Clip path group">
<mask id="mask0_250_2000" style="mask-type:luminance" maskUnits="userSpaceOnUse" x="0" y="0" width="32" height="35">
<g id="dedb16ad7a">
<path id="Vector" d="M0 0H31.343V34.9651H0V0Z" fill="white"/>
</g>
</mask>
<g mask="url(#mask0_250_2000)">
<g id="Group">
<path id="Vector_2" fill-rule="evenodd" clip-rule="evenodd" d="M27.7071 19.1799C26.2884 31.6006 18.5689 36.4406 5.15369 34.2704C5.07081 32.3237 5.07081 30.8839 5.15369 29.9382L2.33025 29.1736C2.26769 27.3926 2.26769 25.6197 2.33025 23.8257C3.06069 24.0272 2.33025 23.8257 0.181187 23.2554L-0.00650024 16.2313C1.75337 15.6398 3.52625 15.1531 5.34137 14.7428C11.2247 22.5599 21.6352 22.4274 25.6482 13.3039C25.6831 13.2478 25.7319 13.1991 25.7668 13.1503C24.6886 14.4373 23.0474 15.1604 20.2654 14.7566L16.3223 18.8671L12.3931 14.7566C4.67431 15.8697 5.70294 8.2615 3.16469 4.23475C5.78662 4.62475 8.02587 6.38381 9.00656 8.853C8.61737 8.08762 7.90806 7.55219 7.08012 7.37831C6.41956 9.22106 7.10125 11.2726 8.72137 12.3508C10.4812 13.533 13.5614 13.3802 14.3756 11.1475C16.4336 5.39662 2.33756 6.18962 1.32194 -1.90735e-06C8.33219 6.09212 24.3336 6.09212 31.3438 -1.90735e-06C30.3282 6.18962 16.2321 5.39662 18.3113 11.1475C19.1043 13.3802 22.2056 13.533 23.9444 12.3508C25.5645 11.2726 26.2462 9.22106 25.6067 7.37831C24.7788 7.54569 24.0695 8.08762 23.6803 8.853C24.6472 6.38381 26.8791 4.61744 29.5011 4.23475C28.6041 5.65419 28.1799 7.53837 27.6096 9.34619C26.8929 11.5164 28.0889 15.9876 27.7071 19.1799ZM16.3223 16.3564L18.3674 14.3463L16.3223 12.2533L14.2919 14.3463L16.3223 16.3564ZM8.72869 9.67362C8.749 10.7445 9.57694 11.6204 10.6202 11.7041C11.6911 11.7877 12.6295 11.0573 12.8318 10.0141C13.0195 8.96431 12.3866 7.94869 11.3782 7.6635C11.3782 8.31025 11.0719 8.93587 10.5503 9.32587C10.0287 9.70856 9.35431 9.84019 8.72869 9.67362ZM23.9167 9.67362C23.8956 10.7445 23.0888 11.6204 22.0252 11.7041C20.9747 11.7877 20.0151 11.0573 19.8209 10.0141C19.6186 8.96431 20.2654 7.94869 21.2737 7.6635C21.2737 8.31025 21.58 8.93587 22.1016 9.32587C22.6159 9.70856 23.2911 9.84019 23.9167 9.67362ZM8.96512 19.4724C6.57962 18.9995 4.29812 18.0326 2.2815 16.6489C3.15819 16.3914 4.04137 16.1614 4.91725 15.9534C6.07181 17.3509 7.43519 18.5404 8.96512 19.4724ZM1.61444 22.1422L1.53075 19.1799C5.40394 21.6344 10.0636 22.7126 14.6746 22.2048C15.015 22.1496 15.3701 22.1219 15.7105 22.0521C16.0509 21.9968 16.406 21.9342 16.7464 21.8644C12.922 23.5406 8.57512 23.9785 4.32656 22.9141L4.34687 22.8589L2.94206 22.49C2.49762 22.3787 2.05237 22.2609 1.61444 22.1422ZM3.63756 25.6474C11.1345 27.5389 18.9304 25.3069 24.2994 20.1118C23.1449 22.2609 21.5036 24.1735 19.4935 25.6823C15.5017 28.6796 10.3277 29.7578 5.4665 28.6236L3.63756 28.1507C3.63106 27.3024 3.63106 26.4753 3.63756 25.6474ZM25.3768 23.2277C24.5497 26.0512 23.1652 28.6236 20.8918 30.4874C16.9 33.7699 11.2247 33.9373 6.28712 33.2483C6.26681 32.6365 6.253 31.9971 6.26681 31.3706C11.4408 32.1847 16.7887 30.8839 21.0234 27.7201C22.7134 26.4404 24.1946 24.9169 25.3768 23.2277Z" fill="#1C274C"/>
</g>
</g>
</g>
</svg>
