<svg width="13" height="12" viewBox="0 0 13 12" fill="none" xmlns="http://www.w3.org/2000/svg">
<circle cx="6.75864" cy="6" r="6" fill="#C4C4C4"/>
<mask id="mask0_1218_501" style="mask-type:alpha" maskUnits="userSpaceOnUse" x="2" y="2" width="9" height="8">
<rect x="2.75861" y="2" width="8" height="8" fill="#D9D9D9"/>
</mask>
<g mask="url(#mask0_1218_501)">
<path d="M5.75865 8.00002H7.75865C7.85309 8.00002 7.93226 7.96808 7.99615 7.90419C8.06004 7.8403 8.09198 7.76113 8.09198 7.66669C8.09198 7.57224 8.06004 7.49308 7.99615 7.42919C7.93226 7.3653 7.85309 7.33335 7.75865 7.33335H5.75865C5.6642 7.33335 5.58504 7.3653 5.52115 7.42919C5.45726 7.49308 5.42531 7.57224 5.42531 7.66669C5.42531 7.76113 5.45726 7.8403 5.52115 7.90419C5.58504 7.96808 5.6642 8.00002 5.75865 8.00002ZM5.75865 6.66669H7.75865C7.85309 6.66669 7.93226 6.63474 7.99615 6.57085C8.06004 6.50696 8.09198 6.4278 8.09198 6.33335C8.09198 6.23891 8.06004 6.15974 7.99615 6.09585C7.93226 6.03196 7.85309 6.00002 7.75865 6.00002H5.75865C5.6642 6.00002 5.58504 6.03196 5.52115 6.09585C5.45726 6.15974 5.42531 6.23891 5.42531 6.33335C5.42531 6.4278 5.45726 6.50696 5.52115 6.57085C5.58504 6.63474 5.6642 6.66669 5.75865 6.66669ZM4.75865 9.33335C4.57531 9.33335 4.41837 9.26808 4.28781 9.13752C4.15726 9.00696 4.09198 8.85002 4.09198 8.66669V3.33335C4.09198 3.15002 4.15726 2.99308 4.28781 2.86252C4.41837 2.73196 4.57531 2.66669 4.75865 2.66669H7.15031C7.2392 2.66669 7.32392 2.68335 7.40448 2.71669C7.48504 2.75002 7.55587 2.79724 7.61698 2.85835L9.23365 4.47502C9.29476 4.53613 9.34198 4.60696 9.37531 4.68752C9.40865 4.76808 9.42531 4.8528 9.42531 4.94169V8.66669C9.42531 8.85002 9.36004 9.00696 9.22948 9.13752C9.09892 9.26808 8.94198 9.33335 8.75865 9.33335H4.75865ZM7.09198 4.66669V3.33335H4.75865V8.66669H8.75865V5.00002H7.42531C7.33087 5.00002 7.2517 4.96808 7.18781 4.90419C7.12392 4.8403 7.09198 4.76113 7.09198 4.66669Z" fill="#1C1B1F"/>
</g>
</svg>
