<svg width="18" height="18" viewBox="0 0 18 18" fill="none" xmlns="http://www.w3.org/2000/svg">
<mask id="mask0_1218_516" style="mask-type:alpha" maskUnits="userSpaceOnUse" x="0" y="0" width="18" height="18">
<rect width="18" height="18" fill="#D9D9D9"/>
</mask>
<g mask="url(#mask0_1218_516)">
<path d="M6.74994 13.5H11.2499C11.4624 13.5 11.6406 13.4282 11.7843 13.2844C11.9281 13.1407 11.9999 12.9625 11.9999 12.75C11.9999 12.5375 11.9281 12.3594 11.7843 12.2157C11.6406 12.0719 11.4624 12 11.2499 12H6.74994C6.53744 12 6.35931 12.0719 6.21556 12.2157C6.07181 12.3594 5.99994 12.5375 5.99994 12.75C5.99994 12.9625 6.07181 13.1407 6.21556 13.2844C6.35931 13.4282 6.53744 13.5 6.74994 13.5ZM6.74994 10.5H11.2499C11.4624 10.5 11.6406 10.4282 11.7843 10.2844C11.9281 10.1407 11.9999 9.96255 11.9999 9.75005C11.9999 9.53755 11.9281 9.35942 11.7843 9.21567C11.6406 9.07192 11.4624 9.00005 11.2499 9.00005H6.74994C6.53744 9.00005 6.35931 9.07192 6.21556 9.21567C6.07181 9.35942 5.99994 9.53755 5.99994 9.75005C5.99994 9.96255 6.07181 10.1407 6.21556 10.2844C6.35931 10.4282 6.53744 10.5 6.74994 10.5ZM4.49994 16.5C4.08744 16.5 3.73431 16.3532 3.44056 16.0594C3.14681 15.7657 2.99994 15.4125 2.99994 15V3.00005C2.99994 2.58755 3.14681 2.23442 3.44056 1.94067C3.73431 1.64692 4.08744 1.50005 4.49994 1.50005H9.88119C10.0812 1.50005 10.2718 1.53755 10.4531 1.61255C10.6343 1.68755 10.7937 1.7938 10.9312 1.9313L14.5687 5.5688C14.7062 5.7063 14.8124 5.86567 14.8874 6.04692C14.9624 6.22817 14.9999 6.4188 14.9999 6.6188V15C14.9999 15.4125 14.8531 15.7657 14.5593 16.0594C14.2656 16.3532 13.9124 16.5 13.4999 16.5H4.49994ZM9.74994 6.00005V3.00005H4.49994V15H13.4999V6.75005H10.4999C10.2874 6.75005 10.1093 6.67817 9.96556 6.53442C9.82181 6.39067 9.74994 6.21255 9.74994 6.00005Z" fill="#1C1B1F"/>
</g>
</svg>
