<svg width="35" height="35" viewBox="0 0 35 35" fill="none" xmlns="http://www.w3.org/2000/svg">
<g id="Layer 2">
<g id="&#226;&#128;&#148;&#195;&#142;&#195;&#147;&#195;&#136; 1">
<path id="Vector" d="M17.4999 34.9999C27.1649 34.9999 34.9999 27.1649 34.9999 17.4999C34.9999 7.83499 27.1649 0 17.4999 0C7.83499 0 0 7.83499 0 17.4999C0 27.1649 7.83499 34.9999 17.4999 34.9999Z" fill="#E9573E"/>
<path id="Vector_2" fill-rule="evenodd" clip-rule="evenodd" d="M13.2332 21.8484L22.1791 21.9747V29.2907L13.1703 29.2222L13.2332 21.8484Z" fill="#F9DCA4"/>
<path id="Vector_3" fill-rule="evenodd" clip-rule="evenodd" d="M30.2869 29.4459C28.6516 31.2007 26.6722 32.5996 24.4721 33.5552C22.2721 34.5109 19.8986 35.0027 17.5 35C16.7736 34.9999 16.0478 34.9551 15.3269 34.8658C13.116 34.549 10.9769 33.8507 9.00485 32.802C7.34055 31.8757 5.83789 30.685 4.55566 29.2765L5.28228 27.5209L13.1686 24.0027C13.5226 26.1112 17.594 28.6326 17.594 28.6326C17.594 28.6326 21.683 26.7002 22.1791 23.9824L29.4226 27.5396L30.2869 29.4459Z" fill="#58B0E0"/>
<path id="Vector_4" opacity="0.11" fill-rule="evenodd" clip-rule="evenodd" d="M22.1808 21.9617V23.9892C22.1565 24.0679 22.1389 24.1727 22.1044 24.2984C22.0662 24.4307 22.0202 24.5606 21.9667 24.6875C21.8705 24.9191 21.205 24.7231 21.0787 24.9225C18.0346 27.2807 14.2894 25.4141 13.232 21.952L22.1808 21.9617Z" fill="black"/>
<path id="Vector_5" fill-rule="evenodd" clip-rule="evenodd" d="M17.6297 4.77542C29.682 4.77542 24.9848 24.7481 17.6297 24.7481C10.6829 24.7481 5.57732 4.77542 17.6297 4.77542Z" fill="#FFE8BE"/>
<path id="Vector_6" fill-rule="evenodd" clip-rule="evenodd" d="M10.4009 13.6177C8.6622 14.3766 10.1404 17.9712 11.2345 17.9548C10.7807 16.5485 10.5008 15.092 10.4009 13.6177Z" fill="#F9DCA4"/>
<path id="Vector_7" fill-rule="evenodd" clip-rule="evenodd" d="M24.9984 13.6177C26.737 14.3761 25.2589 17.9712 24.1653 17.9548C24.6188 16.5485 24.8986 15.092 24.9984 13.6177Z" fill="#F9DCA4"/>
<path id="Vector_8" fill-rule="evenodd" clip-rule="evenodd" d="M10.5906 15.2896C10.5906 15.2896 8.733 14.2951 9.26423 10.7554C9.79546 7.21577 12.7263 5.4097 13.8091 5.67532C11.8174 8.49566 10.6982 11.8385 10.5906 15.2896Z" fill="#969696"/>
<path id="Vector_9" fill-rule="evenodd" clip-rule="evenodd" d="M24.8285 15.2896C24.8285 15.2896 26.6861 14.2951 26.1554 10.7554C25.6247 7.21578 22.6883 5.48843 21.6054 5.75462C23.6021 8.54272 24.7237 11.8618 24.8285 15.2896Z" fill="#969696"/>
<path id="Vector_10" fill-rule="evenodd" clip-rule="evenodd" d="M13.1703 23.3566L17.594 28.6326L14.0193 30.6448L11.285 24.6467L13.1703 23.3566Z" fill="#434955"/>
<path id="Vector_11" fill-rule="evenodd" clip-rule="evenodd" d="M22.1791 23.4585L17.594 28.6326L21.2888 30.6448L23.9971 24.5742L22.1791 23.4585Z" fill="#434955"/>
<path id="Vector_12" fill-rule="evenodd" clip-rule="evenodd" d="M17.6291 20.2026C16.7173 21.3506 13.287 21.7753 13.1635 19.7161C13.9632 20.0842 14.6332 19.9976 15.8219 19.0461C17.0112 18.0952 17.6399 19.2189 17.6399 19.2189C17.6399 19.2189 18.3099 18.0952 19.4992 19.0461C20.6879 19.9976 21.3579 20.0837 22.1576 19.7161C22.0341 21.7753 18.5409 21.3506 17.6291 20.2026Z" fill="#969696"/>
<path id="Vector_13" d="M14.8378 17.4119C15.8348 17.4119 16.643 16.6037 16.643 15.6067C16.643 14.6098 15.8348 13.8016 14.8378 13.8016C13.8408 13.8016 13.0326 14.6098 13.0326 15.6067C13.0326 16.6037 13.8408 17.4119 14.8378 17.4119Z" fill="#E6E6E6"/>
<path id="Vector_14" fill-rule="evenodd" clip-rule="evenodd" d="M20.5543 17.1585C21.5069 16.8481 21.337 16.9625 21.1478 17.0407C20.3447 17.1585 20.1437 17.116 19.9608 17.0407C20.149 17.1184 20.3506 17.1585 20.5543 17.1585ZM24.816 14.858L22.6537 15.2901L22.5914 15.3043L22.5801 15.242C22.5433 15.0371 22.4755 14.8391 22.379 14.6547C22.2819 14.4693 22.1572 14.2998 22.0092 14.1518L21.9656 14.1087C21.7836 13.9371 21.5719 13.7999 21.3409 13.7038C20.8366 13.4965 20.2708 13.4965 19.7665 13.7038C19.4346 13.8411 19.1443 14.0628 18.9246 14.347C18.7048 14.6311 18.5632 14.9678 18.5137 15.3235L18.5064 15.3762H16.8838L16.877 15.3235C16.8465 15.1036 16.7803 14.8901 16.6811 14.6915C16.5815 14.4918 16.4503 14.3096 16.2926 14.1518L16.2495 14.1087C15.9606 13.837 15.5994 13.6543 15.2093 13.5824C14.8192 13.5106 14.4166 13.5528 14.0498 13.7038C13.7318 13.8354 13.4519 14.0445 13.2355 14.3121C13.0192 14.5797 12.8733 14.8973 12.8112 15.2358L12.7999 15.2986L12.7376 15.2845L10.6008 14.8552L10.5793 15.2839L12.7756 15.9578L12.8095 15.9692L12.8163 16.0031C12.8913 16.3872 13.0744 16.7419 13.3442 17.0254L13.3815 17.0628C13.5733 17.2543 13.8007 17.4063 14.051 17.5102C14.5544 17.718 15.1196 17.7182 15.6231 17.5108C15.8732 17.4068 16.1004 17.2548 16.292 17.0633L16.2926 17.0628L16.2931 17.0622C16.6032 16.7528 16.8062 16.3523 16.8725 15.9193L16.8804 15.8672H18.5103L18.5183 15.9193C18.5507 16.1343 18.6173 16.3427 18.7154 16.5366C18.806 16.7148 18.922 16.8788 19.0597 17.0237L19.0982 17.0628C19.2899 17.2543 19.5174 17.4063 19.7676 17.5102C20.271 17.718 20.8362 17.7182 21.3398 17.5108C21.5897 17.4067 21.8167 17.2547 22.0081 17.0633L22.0092 17.0628C22.1523 16.9196 22.2736 16.7557 22.3694 16.5774C22.4646 16.4002 22.5331 16.21 22.5727 16.0128L22.5795 15.9782L22.6135 15.9669L24.8279 15.2901L24.8154 14.8591L24.816 14.858ZM15.4311 14.1727C15.6116 14.2478 15.7762 14.3561 15.9165 14.4921H15.9176L15.9358 14.5097C16.2266 14.8007 16.39 15.1953 16.39 15.6067C16.39 16.0181 16.2266 16.4127 15.9358 16.7037L15.9346 16.7048C15.6437 16.9955 15.2492 17.1588 14.8379 17.1588C14.4266 17.1588 14.0321 16.9955 13.7412 16.7048L13.7231 16.6867V16.6856C13.5872 16.5451 13.479 16.3802 13.4042 16.1997C13.2473 15.8199 13.2473 15.3935 13.4042 15.0137C13.5619 14.6333 13.8642 14.331 14.2447 14.1733C14.6246 14.0163 15.0512 14.0157 15.4311 14.1727ZM21.6082 14.5533C21.5243 14.4695 21.4308 14.3959 21.3296 14.3341C21.1036 14.1966 20.8451 14.1216 20.5805 14.1169C20.316 14.1122 20.055 14.178 19.8243 14.3075C19.724 14.364 19.6305 14.4319 19.5456 14.5097C19.4955 14.5553 19.4488 14.6046 19.4057 14.657C19.3163 14.765 19.2425 14.8851 19.1866 15.0137C19.1653 15.0621 19.1468 15.1117 19.1311 15.1621C19.0861 15.306 19.0634 15.456 19.0637 15.6067C19.0637 15.6554 19.0665 15.7041 19.071 15.7523C19.0859 15.9065 19.1249 16.0575 19.1866 16.1997C19.2064 16.2459 19.2288 16.2911 19.2534 16.335C19.3204 16.4544 19.4035 16.5639 19.5003 16.6607V16.6618L19.5247 16.6856L19.536 16.6958L19.5456 16.7048C19.5921 16.7476 19.6413 16.7873 19.6929 16.8238C19.8125 16.909 19.9442 16.9758 20.0837 17.022C20.3462 17.1086 20.6275 17.1208 20.8965 17.0572C21.1656 16.9936 21.4117 16.8568 21.6077 16.6618L21.6094 16.6607L21.6377 16.6312C21.904 16.349 22.05 15.9742 22.0447 15.5862C22.0394 15.1983 21.8833 14.8276 21.6094 14.5527L21.6082 14.5533Z" fill="#434955"/>
<path id="Vector_15" d="M20.5543 17.1671C21.416 17.1671 22.1146 16.4685 22.1146 15.6067C22.1146 14.745 21.416 14.0464 20.5543 14.0464C19.6925 14.0464 18.9939 14.745 18.9939 15.6067C18.9939 16.4685 19.6925 17.1671 20.5543 17.1671Z" fill="#E6E6E6"/>
<path id="Vector_16" d="M14.8379 17.1671C15.6996 17.1671 16.3982 16.4685 16.3982 15.6067C16.3982 14.745 15.6996 14.0464 14.8379 14.0464C13.9761 14.0464 13.2775 14.745 13.2775 15.6067C13.2775 16.4685 13.9761 17.1671 14.8379 17.1671Z" fill="#E6E6E6"/>
</g>
</g>
</svg>
