<svg
          width="38"
          height="38"
          viewBox="0 0 30 30"
          fill="none"
          xmlns="http://www.w3.org/2000/svg"
        >
          <g clip-path="url(#clip0_436_1672)">
            <g clip-path="url(#clip1_436_1672)">
              <path
                d="M15 30C23.2843 30 30 23.2843 30 15C30 6.71573 23.2843 0 15 0C6.71573 0 0 6.71573 0 15C0 23.2843 6.71573 30 15 30Z"
                fill="#9747FF"
              />
              <path
                opacity="0.1"
                d="M23.43 6.55377C23.3325 6.46312 23.2 6.40723 23.0531 6.40723H6.94688C6.64688 6.40723 6.40623 6.6385 6.40623 6.92285V16.6697C6.40623 16.8097 6.465 16.9369 6.56027 17.0297L6.56057 17.03C6.56274 17.0322 6.56461 17.0341 6.56649 17.0363L8.70305 19.1729H6.60275C6.49336 19.1729 6.40588 19.2604 6.40588 19.3697V23.3947C6.40588 23.4569 6.43617 23.511 6.48059 23.5478L12.7665 29.8338C13.4953 29.9425 14.2409 30 15 30C23.2844 30 30 23.284 30 15C30 14.3163 29.95 13.6447 29.8615 12.9856L23.4434 6.56748C23.4387 6.56279 23.4347 6.55811 23.43 6.55377Z"
                fill="black"
              />
              <path
                d="M17.8631 17.1865H12.1369V18.3681H17.8631V17.1865Z"
                fill="#3A556A"
              />
              <path
                d="M17.8631 18.3681H12.1369L17.8631 17.1865V18.3681Z"
                fill="#64798A"
              />
              <path
                d="M19.0894 18.3682H10.9113V19.1732H19.0894V18.3682Z"
                fill="#2F4859"
              />
              <path
                d="M23.0538 6.40625H6.94623C6.64781 6.40625 6.40623 6.63781 6.40623 6.92346V16.6691C6.40623 16.9547 6.64811 17.1863 6.94623 17.1863H23.0537C23.3518 17.1863 23.5937 16.9547 23.5937 16.6691V6.92346C23.5938 6.63781 23.3519 6.40625 23.0538 6.40625Z"
                fill="#EBF0F3"
              />
              <path
                d="M22.6562 7.30408H7.34373V14.8666H22.6562V7.30408Z"
                fill="#64798A"
              />
              <path
                d="M15 16.5516C15.3711 16.5516 15.6719 16.2635 15.6719 15.9082C15.6719 15.5528 15.3711 15.2648 15 15.2648C14.6289 15.2648 14.3281 15.5528 14.3281 15.9082C14.3281 16.2635 14.6289 16.5516 15 16.5516Z"
                fill="#64798A"
              />
              <path
                d="M23.3956 19.1729H6.60439C6.495 19.1729 6.40629 19.2616 6.40629 19.371V23.3956C6.40629 23.505 6.49506 23.5937 6.60439 23.5937H23.3957C23.5051 23.5937 23.5938 23.505 23.5938 23.3956V19.371C23.5938 19.2616 23.505 19.1729 23.3956 19.1729Z"
                fill="#64798A"
              />
              <path
                d="M13.4475 20.1719H7.29123V21.6606H13.4475V20.1719Z"
                fill="#3A556A"
              />
              <path
                d="M13.4475 22.0437H12.7019V22.3137H13.4475V22.0437Z"
                fill="#EBF0F3"
              />
              <path
                d="M15.4 21.8831C15.7877 21.8831 16.1019 21.5688 16.1019 21.1812C16.1019 20.7936 15.7877 20.4793 15.4 20.4793C15.0124 20.4793 14.6981 20.7936 14.6981 21.1812C14.6981 21.5688 15.0124 21.8831 15.4 21.8831Z"
                fill="#EBF0F3"
              />
              <path
                d="M15.4 21.4969C15.5743 21.4969 15.7157 21.3556 15.7157 21.1812C15.7157 21.0069 15.5743 20.8656 15.4 20.8656C15.2257 20.8656 15.0844 21.0069 15.0844 21.1812C15.0844 21.3556 15.2257 21.4969 15.4 21.4969Z"
                fill="#64798A"
              />
              <path
                d="M17.7137 19.7969H17.4106V22.9722H17.7137V19.7969Z"
                fill="#3A556A"
              />
              <path
                d="M18.7116 19.7969H18.4085V22.9722H18.7116V19.7969Z"
                fill="#3A556A"
              />
              <path
                d="M19.7094 19.7969H19.4062V22.9722H19.7094V19.7969Z"
                fill="#3A556A"
              />
              <path
                d="M20.7062 19.7969H20.4031V22.9722H20.7062V19.7969Z"
                fill="#3A556A"
              />
              <path
                d="M21.7031 19.7969H21.4V22.9722H21.7031V19.7969Z"
                fill="#3A556A"
              />
              <path
                d="M22.7031 19.7969H22.4V22.9722H22.7031V19.7969Z"
                fill="#3A556A"
              />
            </g>
          </g>
          <defs>
            <clipPath id="clip0_436_1672">
              <rect width="30" height="30" fill="white" />
            </clipPath>
            <clipPath id="clip1_436_1672">
              <rect width="30" height="30" fill="white" />
            </clipPath>
          </defs>
        </svg>