<svg
          width="38"
          height="38"
          viewBox="0 0 30 30"
          fill="none"
          xmlns="http://www.w3.org/2000/svg"
        >
          <g clip-path="url(#clip0_423_779)">
            <path
              d="M15 30C23.2843 30 30 23.2843 30 15C30 6.71573 23.2843 0 15 0C6.71573 0 0 6.71573 0 15C0 23.2843 6.71573 30 15 30Z"
              fill="#FF7F4F"
            />
            <path
              d="M23.2997 10L14.9083 10.756L14.9648 10.4441L5.94128 11.0113L9.14009 14.2241L8.35019 16.9697L6.66667 20.4933L16.1311 29.9577C23.3519 29.4194 29.148 23.7689 29.9135 16.6137L23.2997 10Z"
              fill="#E03A00"
            />
            <path
              d="M22.9798 10.0388H7.02017V10.9479H11.5244C9.35115 12.1686 7.87875 14.495 7.87875 17.16V20.4933H8.78783V17.16C8.78783 13.7347 11.5746 10.9479 14.9999 10.9479C18.4253 10.9479 21.212 13.7347 21.212 17.16V20.4933H22.1211V17.16C22.1211 14.4949 20.6487 12.1686 18.4755 10.9479H22.9797V10.0388H22.9798Z"
              fill="white"
            />
            <path
              d="M22.9798 10.0388H14.9664V10.9487C14.9777 10.9486 14.9887 10.9479 15 10.9479C18.4253 10.9479 21.2121 13.7347 21.2121 17.16V20.4933H22.1212V17.16C22.1212 14.4949 20.6488 12.1686 18.4756 10.9479H22.9798V10.0388H22.9798Z"
              fill="#D3D3D3"
            />
            <path
              d="M6.66668 11.4024C6.16453 11.4024 5.7576 10.9954 5.7576 10.4933C5.7576 9.99116 6.16459 9.58423 6.66668 9.58423C7.16883 9.58423 7.57576 9.99122 7.57576 10.4933C7.57576 10.9955 7.16871 11.4024 6.66668 11.4024Z"
              fill="#515151"
            />
            <path
              d="M22.5758 11.4024C22.0736 11.4024 21.6667 10.9954 21.6667 10.4933C21.6667 9.99116 22.0737 9.58423 22.5758 9.58423C23.0779 9.58423 23.4849 9.99122 23.4849 10.4933C23.4849 10.9955 23.0778 11.4024 22.5758 11.4024Z"
              fill="#2D2D2D"
            />
            <path
              d="M16.6667 8.82629H13.3334V12.1596H16.6667V8.82629Z"
              fill="#515151"
            />
            <path
              d="M16.6669 8.82629H14.9667V12.1596H16.6669V8.82629Z"
              fill="#2D2D2D"
            />
            <path
              d="M14.9667 8.82629H13.3334V12.1596H14.9667V8.82629Z"
              fill="#515151"
            />
            <path d="M10 17.1596H6.66669V20.4929H10V17.1596Z" fill="#515151" />
            <path
              d="M23.3333 17.1596H20V20.4929H23.3333V17.1596Z"
              fill="#2D2D2D"
            />
          </g>
          <defs>
            <clipPath id="clip0_423_779">
              <rect width="30" height="30" fill="white" />
            </clipPath>
          </defs>
        </svg>