<svg
          width="38"
          height="38"
          viewBox="0 0 30 30"
          fill="none"
          xmlns="http://www.w3.org/2000/svg"
        >
          <g clip-path="url(#clip0_423_773)">
            <path
              d="M15 30C23.2843 30 30 23.2843 30 15C30 6.71573 23.2843 0 15 0C6.71573 0 0 6.71573 0 15C0 23.2843 6.71573 30 15 30Z"
              fill="#FFD05B"
            />
            <path
              d="M14.5748 25.1338C11.9291 25.1338 9.87402 20.7874 9.87402 15.2362C9.87402 9.6614 11.9291 5.31494 14.5748 5.31494C17.2205 5.31494 19.2756 9.6614 19.2756 15.2126C19.2992 20.7638 17.2205 25.1338 14.5748 25.1338ZM14.5748 6.16534C12.4724 6.16534 10.7008 10.3228 10.7008 15.2126C10.7008 20.126 12.4724 24.2598 14.5748 24.2598C16.6772 24.2598 18.4488 20.1023 18.4488 15.2126C18.4488 10.3228 16.6772 6.16534 14.5748 6.16534Z"
              fill="white"
            />
            <path
              d="M8.95276 22.6063C7.96063 22.6063 7.20473 22.3228 6.68504 21.8032C6.23622 21.3307 6 20.6457 6.04725 19.8425C6.18898 17.6221 8.31496 14.5039 11.4567 11.9055C14.4803 9.40158 17.8346 7.84253 20.1969 7.84253C21.189 7.84253 21.9449 8.12599 22.4646 8.64568C22.9134 9.11812 23.1496 9.80316 23.1024 10.6063C22.9606 12.8268 20.8346 15.9449 17.6929 18.5433C14.6693 21.0473 11.315 22.6063 8.95276 22.6063ZM20.1969 8.6693C18.0472 8.6693 14.8346 10.1811 12 12.5433C9.07087 14.9764 7.01575 17.9291 6.89764 19.8898C6.87402 20.4567 6.99213 20.9055 7.29921 21.2362C7.65354 21.5906 8.19685 21.7795 8.95276 21.7795C11.1024 21.7795 14.315 20.2677 17.1496 17.9055C20.1024 15.4725 22.1339 12.5197 22.252 10.5591C22.2756 9.99214 22.1575 9.54332 21.8504 9.21261C21.5197 8.85828 20.9528 8.6693 20.1969 8.6693Z"
              fill="white"
            />
            <path
              d="M20.1968 22.6063C17.8346 22.6063 14.4803 21.0473 11.4567 18.5433C8.31496 15.9449 6.18898 12.8268 6.07086 10.6063C6.02362 9.80316 6.23622 9.11812 6.70866 8.64568C7.22835 8.10237 7.98425 7.84253 8.97638 7.84253C11.3386 7.84253 14.6929 9.40158 17.7165 11.9055C20.8583 14.5039 22.9843 17.6221 23.126 19.8425C23.1732 20.6457 22.9606 21.3307 22.4882 21.8032C21.9685 22.3465 21.189 22.6063 20.1968 22.6063ZM8.95276 8.6693C8.19685 8.6693 7.62992 8.85828 7.29921 9.21261C6.99212 9.51969 6.87401 9.96851 6.89764 10.5591C7.01575 12.5197 9.07087 15.4725 12 17.9055C14.8346 20.2441 18.0472 21.7795 20.1968 21.7795C20.9528 21.7795 21.5197 21.5906 21.8504 21.2362C22.1575 20.9291 22.2756 20.4803 22.252 19.8898C22.1339 17.9291 20.0787 14.9764 17.1496 12.5433C14.315 10.2047 11.1024 8.6693 8.95276 8.6693Z"
              fill="white"
            />
            <path
              d="M14.5748 16.8425C15.475 16.8425 16.2047 16.1128 16.2047 15.2126C16.2047 14.3124 15.475 13.5827 14.5748 13.5827C13.6746 13.5827 12.9449 14.3124 12.9449 15.2126C12.9449 16.1128 13.6746 16.8425 14.5748 16.8425Z"
              fill="#324A5E"
            />
            <path
              d="M12.9213 7.58268C13.6649 7.58268 14.2677 6.97985 14.2677 6.23623C14.2677 5.4926 13.6649 4.88977 12.9213 4.88977C12.1776 4.88977 11.5748 5.4926 11.5748 6.23623C11.5748 6.97985 12.1776 7.58268 12.9213 7.58268Z"
              fill="#FF7058"
            />
            <path
              d="M8.92914 23.5276C9.67276 23.5276 10.2756 22.9247 10.2756 22.1811C10.2756 21.4375 9.67276 20.8347 8.92914 20.8347C8.18551 20.8347 7.58268 21.4375 7.58268 22.1811C7.58268 22.9247 8.18551 23.5276 8.92914 23.5276Z"
              fill="#84DBFF"
            />
            <path
              d="M22.5827 20.315C23.3263 20.315 23.9291 19.7122 23.9291 18.9685C23.9291 18.2249 23.3263 17.6221 22.5827 17.6221C21.839 17.6221 21.2362 18.2249 21.2362 18.9685C21.2362 19.7122 21.839 20.315 22.5827 20.315Z"
              fill="#4CDBC4"
            />
          </g>
          <defs>
            <clipPath id="clip0_423_773">
              <rect width="30" height="30" fill="white" />
            </clipPath>
          </defs>
        </svg>